<?xml version="1.0" encoding="utf-8" ?>
<svg baseProfile="tiny" height="100%" version="1.2" width="100%" xmlns="http://www.w3.org/2000/svg" xmlns:ev="http://www.w3.org/2001/xml-events" xmlns:xlink="http://www.w3.org/1999/xlink"><defs /><polygon fill="white" points="499,487 499,488 498,489 498,490 497,491 497,492 492,497 491,497 490,498 489,498 488,499 486,499 499,499" /><polygon fill="white" points="459,299 384,374 383,374 380,377 379,377 377,379 376,379 374,381 373,381 372,382 371,382 370,383 369,383 368,384 366,384 365,385 363,385 362,386 360,386 359,387 355,387 354,388 335,388 334,387 330,387 329,386 327,386 326,385 324,385 323,384 322,384 320,382 318,382 317,381 316,381 315,380 314,380 312,378 311,378 307,374 306,374 301,369 301,367 299,365 297,365 295,363 294,363 293,362 291,362 290,361 284,361 283,362 281,362 280,363 279,363 278,364 277,364 277,365 276,366 274,366 273,367 273,368 243,398 242,398 242,399 241,400 240,400 240,401 235,406 234,406 234,407 206,435 205,435 205,436 204,437 203,437 203,438 202,439 201,439 191,449 191,450 190,451 189,451 187,453 187,454 165,476 164,476 164,477 157,484 156,484 156,485 149,492 148,492 148,493 147,494 146,494 146,495 143,498 142,498 141,499 139,499 239,499 237,499 236,498 235,498 230,493 230,492 229,492 228,491 228,489 226,487 226,476 225,475 225,472 226,471 226,464 227,463 227,461 228,460 228,459 230,457 230,456 231,455 232,455 235,452 236,452 237,451 239,451 240,450 251,450 252,451 254,451 255,452 256,452 258,454 259,454 262,457 262,458 264,460 264,463 265,464 265,467 266,468 266,483 265,484 265,486 264,487 264,488 263,489 263,491 262,492 262,493 259,496 258,496 256,498 255,498 254,499 252,499 316,499 315,499 314,498 313,498 311,496 311,495 305,489 305,487 304,486 304,483 303,482 303,440 304,439 304,435 305,434 305,433 306,432 306,431 307,430 307,428 310,425 312,425 314,423 315,423 317,421 320,421 321,420 327,420 328,421 330,421 331,422 333,422 334,423 334,424 336,424 341,429 341,430 342,431 342,432 343,433 343,434 344,435 344,486 343,487 343,488 342,489 342,490 341,491 341,492 336,497 335,497 334,498 333,498 332,499 331,499 394,499 393,499 392,498 391,498 390,497 390,496 386,492 385,492 384,491 384,490 383,489 383,488 382,487 382,483 381,482 381,424 382,423 382,420 383,419 383,418 384,417 384,416 386,414 387,414 387,413 390,410 392,410 392,409 393,408 395,408 396,407 408,407 409,408 411,408 413,410 414,410 419,415 419,416 420,417 420,418 421,419 421,420 422,421 422,429 423,430 423,480 422,481 422,486 421,487 421,488 420,489 420,490 419,491 419,492 414,497 413,497 411,499 409,499 473,499 471,499 470,498 469,498 467,496 467,495 465,493 464,493 462,491 462,490 461,489 461,488 460,487 460,484 459,483 459,408 460,407 460,403 462,401 462,400 463,399 463,397 468,392 470,392 471,391 473,391 474,390 476,390 477,389 483,389 484,390 486,390 487,391 488,391 489,392 490,392 495,397 496,397 498,399 498,400 499,401 499,402 499,342 499,343 498,344 498,345 496,347 495,347 495,348 494,349 493,349 490,352 489,352 488,353 487,353 486,354 484,354 483,355 477,355 476,354 473,354 472,353 471,353 470,352 468,352 467,351 467,350 465,348 464,348 463,347 463,346 461,344 461,342 460,341 460,338 459,337" /><polygon fill="white" points="229,0 236,0 237,1 242,1 243,2 246,2 247,3 251,3 252,4 255,4 256,5 259,5 260,6 263,6 264,7 266,7 267,8 268,8 269,9 271,9 272,10 275,10 276,11 277,11 278,12 279,12 280,13 283,13 285,15 286,15 287,16 289,16 290,17 291,17 292,18 293,18 294,19 296,19 297,20 298,20 299,21 300,21 301,22 301,23 302,23 303,24 305,24 306,25 307,25 308,26 309,26 310,27 310,28 312,28 313,29 314,29 316,31 317,31 320,34 321,34 323,36 324,36 327,39 328,39 332,43 333,43 338,48 338,49 339,50 341,50 346,55 346,56 354,64 355,64 360,69 360,71 362,73 363,73 366,76 366,78 367,78 369,80 369,82 370,82 372,84 372,85 374,87 374,88 377,91 377,92 378,93 378,94 380,96 380,97 382,99 382,100 383,101 383,102 385,104 385,105 386,106 386,107 387,108 387,109 388,110 388,111 389,112 389,113 390,114 390,115 391,116 391,117 392,118 392,119 393,120 393,123 394,124 394,125 395,126 395,127 396,128 396,130 397,131 397,132 398,133 398,135 399,136 399,138 400,139 400,141 401,142 401,144 402,145 402,146 403,147 403,151 404,152 404,155 405,156 405,159 406,160 406,162 407,163 407,169 408,170 408,180 407,181 407,182 406,183 406,184 405,185 405,187 404,188 403,188 399,192 398,192 396,194 395,194 394,195 390,195 389,196 387,196 386,195 382,195 381,194 380,194 379,193 377,193 375,191 374,191 372,189 372,187 371,186 370,186 369,185 369,183 368,182 368,180 367,179 367,176 366,175 366,171 365,170 365,167 364,166 364,163 363,162 363,158 362,157 362,155 361,154 361,152 360,151 360,149 359,148 359,146 358,145 358,143 356,141 356,138 355,137 355,136 354,135 354,134 353,133 353,131 352,130 352,129 351,128 351,127 350,126 350,125 348,123 348,122 346,120 346,118 345,118 344,117 344,116 343,115 343,113 339,109 339,108 338,107 338,106 334,102 334,101 329,96 329,95 328,94 328,93 327,93 314,80 314,79 312,79 310,77 310,76 309,76 308,75 308,74 307,74 306,73 305,73 304,72 304,71 303,71 302,70 301,70 300,69 299,69 298,68 298,67 296,67 295,66 295,65 294,65 293,64 292,64 290,62 288,62 286,60 284,60 281,57 278,57 277,56 276,56 275,55 274,55 273,54 272,54 270,52 267,52 266,51 264,51 263,50 261,50 260,49 258,49 257,48 255,48 254,47 252,47 251,46 248,46 247,45 244,45 243,44 239,44 238,43 233,43 232,42 225,42 224,41 211,41 210,40 202,40 201,41 187,41 186,42 180,42 179,43 174,43 173,44 169,44 168,45 164,45 163,46 161,46 160,47 157,47 156,48 154,48 153,49 151,49 150,50 148,50 147,51 145,51 144,52 142,52 141,53 140,53 139,54 138,54 137,55 135,55 134,56 133,56 132,57 131,57 130,58 129,58 128,59 127,59 126,60 125,60 124,61 122,61 121,62 120,62 117,65 116,65 115,66 114,66 113,67 112,67 109,70 108,70 107,71 106,71 106,72 105,73 103,73 103,74 101,76 100,76 94,82 93,82 80,95 80,96 75,101 74,101 74,103 73,104 72,104 72,105 71,106 71,107 70,108 69,108 69,110 68,111 67,111 67,113 66,114 65,114 65,116 64,117 63,117 63,118 62,119 62,121 61,122 61,123 60,124 60,125 59,126 59,127 58,128 58,129 57,130 57,131 56,132 56,133 54,135 54,136 53,137 53,140 52,141 52,143 51,144 51,145 50,146 50,148 49,149 49,151 48,152 48,155 47,156 47,158 46,159 46,161 45,162 45,166 44,167 44,171 43,172 43,175 42,176 42,182 41,183 41,191 40,192 40,219 41,220 41,229 42,230 42,234 43,235 43,239 44,240 44,244 45,245 45,247 46,248 46,251 47,252 47,253 48,254 48,257 49,258 49,260 50,261 50,263 51,264 51,265 52,266 52,268 53,269 53,270 54,271 54,272 55,273 55,274 56,275 56,276 57,277 57,278 58,279 58,280 59,281 59,282 60,283 60,284 61,285 61,287 62,288 62,289 63,289 64,290 64,292 65,292 66,293 66,294 68,296 68,298 71,301 71,302 72,302 73,303 73,305 74,305 75,306 75,307 80,312 80,313 96,329 97,329 102,334 103,334 106,337 107,337 108,338 108,339 109,339 110,340 111,340 114,343 115,343 117,345 119,345 121,347 122,347 124,349 126,349 127,350 128,350 130,352 131,352 132,353 134,353 135,354 136,354 137,355 138,355 139,356 140,356 142,358 142,359 144,359 146,361 146,363 147,363 148,364 148,365 149,366 149,367 150,368 150,381 149,382 149,383 148,384 148,385 147,386 146,386 146,388 143,391 141,391 141,392 140,393 139,393 138,394 123,394 121,392 119,392 117,390 115,390 113,388 112,388 111,387 109,387 108,386 107,386 106,385 105,385 104,384 103,384 102,383 101,383 99,381 98,381 97,380 96,380 94,378 93,378 91,376 90,376 88,374 87,374 84,371 83,371 81,369 80,369 76,365 75,365 70,360 70,359 68,359 63,354 63,353 62,353 60,351 60,350 59,349 58,349 50,341 50,339 49,339 44,334 44,333 40,329 40,328 38,326 38,325 35,322 35,321 33,319 33,318 31,316 31,315 29,313 29,312 28,311 28,310 26,308 26,307 25,306 25,304 24,303 24,302 21,299 21,298 20,297 20,296 19,295 19,293 18,292 18,291 17,290 17,288 16,287 16,286 14,284 14,281 12,279 12,277 11,276 11,273 10,272 10,271 9,270 9,267 8,266 8,265 7,264 7,262 6,261 6,258 5,257 5,254 4,253 4,250 3,249 3,246 2,245 2,240 1,239 1,235 0,234 0,226 0,499 125,499 124,499 123,498 122,498 121,497 120,497 116,493 116,492 114,490 114,489 113,488 113,486 112,485 112,474 113,473 113,472 114,471 114,470 116,468 116,467 221,362 222,362 242,342 242,341 250,333 251,333 254,330 255,330 257,328 258,328 259,327 260,327 261,326 262,326 263,325 264,325 265,324 267,324 268,323 269,323 270,322 273,322 274,321 278,321 279,320 297,320 298,321 301,321 302,322 304,322 305,323 307,323 308,324 310,324 311,325 312,325 313,326 314,326 315,327 315,328 317,328 318,329 319,329 321,331 322,331 327,336 328,336 330,338 330,339 335,344 336,344 338,346 340,346 341,347 349,347 350,346 351,346 352,345 354,345 355,344 356,344 357,343 357,342 358,341 359,341 359,340 389,310 390,310 391,309 391,308 426,273 427,273 431,269 431,268 388,268 387,267 384,267 381,264 379,264 375,260 375,258 374,258 373,257 373,255 372,254 372,242 373,241 373,239 374,238 374,237 375,236 375,235 379,231 381,231 382,230 383,230 385,228 388,228 389,227 446,227 447,228 452,228 453,229 456,229 457,230 461,230 463,232 466,232 468,234 470,234 472,236 473,236 475,238 476,238 479,241 479,242 481,242 485,246 485,248 486,248 489,251 489,253 490,253 492,255 492,257 493,258 493,259 494,260 494,261 496,263 496,264 497,265 497,267 498,268 498,270 499,271 499,275 499,0" /><polygon fill="white" points="0,0 0,183 0,175 1,174 1,169 2,168 2,163 3,162 3,159 4,158 4,155 5,154 5,150 6,149 6,146 7,145 7,143 8,142 8,140 9,139 9,138 10,137 10,135 11,134 11,133 12,132 12,129 13,128 13,127 14,126 14,124 16,122 16,121 17,120 17,118 18,117 18,116 19,115 19,114 20,113 20,112 21,111 21,110 22,109 22,108 23,107 23,106 24,105 24,104 26,102 26,101 27,100 27,99 28,98 28,97 30,95 30,94 32,92 32,91 34,89 34,88 37,85 37,84 40,81 40,80 43,77 43,76 49,70 49,69 65,53 67,53 68,52 68,51 72,47 73,47 77,43 78,43 81,40 82,40 85,37 86,37 88,35 89,35 92,32 93,32 94,31 95,31 97,29 98,29 99,28 100,28 101,27 102,27 103,26 104,26 106,24 107,24 108,23 109,23 110,22 111,22 112,21 113,21 114,20 115,20 116,19 117,19 118,18 121,18 122,17 123,17 124,16 125,16 126,15 127,15 128,14 130,14 132,12 135,12 136,11 138,11 139,10 140,10 141,9 144,9 145,8 147,8 148,7 149,7 150,6 153,6 154,5 157,5 158,4 161,4 162,3 166,3 167,2 170,2 171,1 177,1 178,0 185,0" /></svg>